<svg height="480pt" viewBox="0 0 480 480" width="480pt" xmlns="http://www.w3.org/2000/svg"><path d="m472 240c0 128.128906-103.871094 232-232 232s-232-103.871094-232-232 103.871094-232 232-232 232 103.871094 232 232zm0 0" fill="#ff3051"/><path d="m368 208c-.136719 0-.265625 0-.398438 0-3.734374-49.210938-41.574218-89.007812-90.535156-95.214844-48.960937-6.207031-95.53125 22.890625-111.425781 69.613282-26.792969-12.117188-58.265625-6.726563-79.496094 13.621093-21.230469 20.34375-27.953125 51.558594-16.980469 78.84375 10.96875 27.28125 37.429688 45.152344 66.835938 45.136719h232c30.929688 0 56-25.070312 56-56s-25.070312-56-56-56zm0 0" fill="#00d7df"/><path d="m240 200-64 88h40v72h48v-72h40zm0 0" fill="#004fac"/><g fill="#231f20"><path d="m240 0c-132.546875 0-240 107.453125-240 240s107.453125 240 240 240 240-107.453125 240-240c-.148438-132.484375-107.515625-239.851562-240-240zm0 464c-123.710938 0-224-100.289062-224-224s100.289062-224 224-224 224 100.289062 224 224c-.140625 123.652344-100.347656 223.859375-224 224zm0 0"/><path d="m374.800781 200.320312c-6.992187-49.777343-46.316406-88.78125-96.148437-95.367187-49.832032-6.582031-97.9375 20.875-117.613282 67.125-8.066406-2.710937-16.527343-4.089844-25.039062-4.078125-44.183594 0-80 35.816406-80 80s35.816406 80 80 80h72v40h64v-40h96c34.1875.226562 62.511719-26.457031 64.332031-60.59375 1.816407-34.140625-23.515625-63.679688-57.53125-67.085938zm-118.800781 151.679688h-32v-72h-32.320312l48.320312-66.398438 48.320312 66.398438h-32.320312zm112-40h-96v-16h47.679688l-79.679688-109.601562-79.679688 109.601562h47.679688v16h-72c-35.347656 0-64-28.652344-64-64s28.652344-64 64-64c9.089844-.019531 18.070312 1.945312 26.320312 5.761719l8.078126 3.597656 2.800781-8.320313c14.660156-43.128906 57.640625-69.992187 102.832031-64.269531 45.191406 5.722657 80.121094 42.449219 83.570312 87.871094l.558594 7.359375h8.078125c26.511719.066406 47.949219 21.609375 47.882813 48.121094-.066406 26.507812-21.613282 47.945312-48.121094 47.878906zm0 0"/></g></svg>